<svg xmlns="http://www.w3.org/2000/svg" width="1080" height="1020" viewBox="0 0 1080 1020">
 <defs><linearGradient id="bg" x2="1" y2="1"><stop stop-color="#f8d99b"/><stop offset=".5" stop-color="#e98268"/><stop offset="1" stop-color="#5fa69a"/></linearGradient><filter id="s"><feDropShadow dx="0" dy="14" stdDeviation="18" flood-opacity=".18"/></filter></defs>
 <rect width="1080" height="1020" fill="url(#bg)"/><circle cx="900" cy="110" r="210" fill="#fff1c9" opacity=".35"/><circle cx="130" cy="850" r="260" fill="#17453d" opacity=".13"/>
 <path d="M0 790 Q220 650 420 790 T820 760 T1080 720 V1020 H0Z" fill="#17453d" opacity=".22"/>
 <g filter="url(#s)"><rect x="215" y="145" width="650" height="690" rx="54" fill="#fff8e9"/><rect x="250" y="180" width="580" height="92" rx="30" fill="#123b33"/><text x="540" y="240" text-anchor="middle" font-family="Arial" font-size="39" font-weight="800" fill="#fff8e9">FAMILY ADVENTURE DICE</text>
 <g transform="translate(285 330)"><rect width="145" height="145" rx="30" fill="#f4c95d" transform="rotate(-7 72 72)"/><circle cx="48" cy="48" r="12" fill="#173c35"/><circle cx="98" cy="98" r="12" fill="#173c35"/></g>
 <g transform="translate(468 312)"><rect width="145" height="145" rx="30" fill="#e98268" transform="rotate(5 72 72)"/><circle cx="45" cy="45" r="12" fill="#fff8e9"/><circle cx="100" cy="45" r="12" fill="#fff8e9"/><circle cx="72" cy="72" r="12" fill="#fff8e9"/><circle cx="45" cy="100" r="12" fill="#fff8e9"/><circle cx="100" cy="100" r="12" fill="#fff8e9"/></g>
 <g transform="translate(650 335)"><rect width="145" height="145" rx="30" fill="#5fa69a" transform="rotate(-4 72 72)"/><circle cx="45" cy="45" r="12" fill="#fff8e9"/><circle cx="100" cy="45" r="12" fill="#fff8e9"/><circle cx="45" cy="100" r="12" fill="#fff8e9"/><circle cx="100" cy="100" r="12" fill="#fff8e9"/></g>
 <path d="M350 655 Q365 535 445 535 Q525 535 540 655" fill="#f4c95d"/><circle cx="445" cy="505" r="70" fill="#a96d45"/><path d="M380 490 Q445 405 510 490 Q470 455 380 490" fill="#3d2923"/>
 <path d="M505 680 Q520 520 620 520 Q720 520 735 680" fill="#17453d"/><circle cx="620" cy="480" r="86" fill="#c88757"/><path d="M540 470 Q550 365 635 378 Q718 390 700 485 Q650 430 540 470" fill="#5a3527"/>
 <path d="M670 655 Q685 550 760 550 Q835 550 850 655" fill="#e98268"/><circle cx="760" cy="520" r="65" fill="#8f5c3c"/><path d="M700 515 Q720 430 790 465 Q825 485 820 535 Q770 490 700 515" fill="#2c2525"/>
 <path d="M335 720 Q540 800 755 715" fill="none" stroke="#c9a75d" stroke-width="18" stroke-linecap="round"/><circle cx="540" cy="760" r="32" fill="#e98268"/><path d="M540 730v60M510 760h60" stroke="#fff8e9" stroke-width="10" stroke-linecap="round"/>
 </g>
 <g fill="#fff8e9" opacity=".9"><path d="M145 185l14 30 32 4-24 22 7 31-29-16-28 16 6-31-23-22 32-4z"/><path d="M920 600l10 22 24 3-18 16 5 24-21-12-22 12 5-24-18-16 25-3z"/></g>
</svg>
