<svg xmlns="http://www.w3.org/2000/svg" width="1080" height="1020" viewBox="0 0 1080 1020"><defs><linearGradient id="b" x2="1" y2="1"><stop stop-color="#f5dedf"/><stop offset=".48" stop-color="#fff1c9"/><stop offset="1" stop-color="#b9d3c0"/></linearGradient><filter id="s"><feDropShadow dy="18" stdDeviation="20" flood-color="#183d36" flood-opacity=".2"/></filter></defs><rect width="1080" height="1020" fill="url(#b)"/><g opacity=".45" fill="none" stroke="#c66f78" stroke-width="9"><path d="M90 180c90-130 190 20 75 85-90 52-30 145 70 95"/><path d="M885 800c110-80 150 45 65 100"/></g><g filter="url(#s)" transform="translate(170 85)"><rect width="740" height="850" rx="38" fill="#fffdf8"/><rect width="740" height="125" rx="38" fill="#183d36"/><path d="M0 86h740v39H0z" fill="#183d36"/><text x="52" y="56" font-family="Arial" font-size="22" font-weight="700" letter-spacing="4" fill="#e7c47b">DESIGNED AROUND REAL LIFE</text><text x="52" y="105" font-family="Georgia" font-size="40" font-weight="700" fill="white">My useful day</text><g transform="translate(48 170)"><rect width="300" height="210" rx="22" fill="#fff" stroke="#d9cdb5" stroke-width="3"/><rect width="300" height="18" rx="9" fill="#dc8f91"/><text x="25" y="62" font-family="Georgia" font-size="30" font-weight="700" fill="#183d36">Top priorities</text><path d="M28 105h240M28 145h240M28 185h180" stroke="#cad6d1" stroke-width="4"/><circle cx="14" cy="105" r="6" fill="#dc8f91"/><circle cx="14" cy="145" r="6" fill="#dc8f91"/></g><g transform="translate(390 170)"><rect width="300" height="210" rx="22" fill="#fff" stroke="#d9cdb5" stroke-width="3"/><rect width="300" height="18" rx="9" fill="#a9c3ae"/><text x="25" y="62" font-family="Georgia" font-size="30" font-weight="700" fill="#183d36">Meals</text><path d="M28 105h240M28 145h240M28 185h180" stroke="#cad6d1" stroke-width="4"/></g><g transform="translate(48 420)"><rect width="300" height="210" rx="22" fill="#fff" stroke="#d9cdb5" stroke-width="3"/><rect width="300" height="18" rx="9" fill="#c9a75d"/><text x="25" y="62" font-family="Georgia" font-size="30" font-weight="700" fill="#183d36">Appointments</text><path d="M28 105h240M28 145h240M28 185h180" stroke="#cad6d1" stroke-width="4"/></g><g transform="translate(390 420)"><rect width="300" height="210" rx="22" fill="#fff" stroke="#d9cdb5" stroke-width="3"/><rect width="300" height="18" rx="9" fill="#dc8f91"/><text x="25" y="62" font-family="Georgia" font-size="30" font-weight="700" fill="#183d36">My own section</text><path d="M28 105h240M28 145h240M28 185h180" stroke="#cad6d1" stroke-width="4"/></g><rect x="48" y="680" width="642" height="105" rx="25" fill="#e4eee8"/><text x="369" y="724" text-anchor="middle" font-family="Arial" font-size="25" font-weight="800" fill="#183d36">CHOOSE IT · RENAME IT · PRINT IT</text><text x="369" y="760" text-anchor="middle" font-family="Arial" font-size="20" fill="#526d64">Private. Useful. Made for your day.</text></g><g fill="#c66f78"><path d="M125 720c45-40 88 12 42 45 46-20 70 35 22 55-57 24-95-49-64-100z"/><circle cx="158" cy="770" r="13" fill="#e7c47b"/></g><g fill="#6f987d"><path d="M925 175c-55 7-80 55-55 92 48-10 79-49 55-92z"/><path d="M952 214c-12 53 17 91 61 84 9-49-14-80-61-84z"/></g></svg>
